<?xml version="1.0" encoding="utf-8"?>
<!-- Generator: Adobe Illustrator 21.0.0, SVG Export Plug-In . SVG Version: 6.00 Build 0)  -->
<svg version="1.1" id="Layer_1" xmlns="http://www.w3.org/2000/svg" xmlns:xlink="http://www.w3.org/1999/xlink" x="0px" y="0px"
	 viewBox="0 0 478 1033.5" style="enable-background:new 0 0 478 1033.5;" xml:space="preserve">
<style type="text/css">
	.st0{fill:url(#SVGID_1_);}
	.st1{fill:url(#SVGID_2_);}
	.st2{fill:#5A5A5A;}
	.st3{fill:url(#SVGID_3_);}
	.st4{fill:url(#SVGID_4_);}
	.st5{filter:url(#Adobe_OpacityMaskFilter);}
	.st6{filter:url(#Adobe_OpacityMaskFilter_1_);}
	.st7{mask:url(#SVGID_5_);fill:url(#SVGID_6_);}
	.st8{fill:url(#SVGID_7_);}
	.st9{fill:url(#SVGID_8_);}
	.st10{filter:url(#Adobe_OpacityMaskFilter_2_);}
	.st11{filter:url(#Adobe_OpacityMaskFilter_3_);}
	.st12{mask:url(#SVGID_9_);fill:url(#SVGID_10_);}
	.st13{fill:url(#SVGID_11_);}
	.st14{fill:#2F2E31;}
	.st15{fill:#0B0E0D;}
	.st16{fill:#0D1623;}
	.st17{fill:#9FB2DB;}
	.st18{fill:#212455;}
	.st19{fill:#4B5596;}
	.st20{fill:#6D81CA;}
	.st21{fill:#AAAAAA;}
	.st22{fill:url(#SVGID_12_);}
	.st23{fill:none;stroke:#000000;stroke-width:0.25;stroke-miterlimit:10;}
	.st24{clip-path:url(#SVGID_14_);}
	.st25{fill:none;}
	.st26{font-family:'Avenir-Heavy';}
	.st27{font-size:88px;}
</style>
<linearGradient id="SVGID_1_" gradientUnits="userSpaceOnUse" x1="238.8373" y1="129.7744" x2="238.8373" y2="500.9081">
	<stop  offset="0" style="stop-color:#000002"/>
	<stop  offset="1" style="stop-color:#212121"/>
</linearGradient>
<path class="st0" d="M63,1012.9c-24,0-43.5-19.5-43.5-43.5V143.6c0-24,19.5-43.5,43.5-43.5h351.6c24,0,43.5,19.5,43.5,43.5v825.8
	c0,24-19.5,43.5-43.5,43.5H63z"/>
<g>
	
		<image style="overflow:visible;" width="1198" height="2238" xlink:href="8163875791D690DA.png"  transform="matrix(0.4557 0 0 0.4557 -33.9508 46.581)">
	</image>
</g>
<g>
	<linearGradient id="SVGID_2_" gradientUnits="userSpaceOnUse" x1="240.1019" y1="127.043" x2="240.1019" y2="117.7381">
		<stop  offset="0" style="stop-color:#545253"/>
		<stop  offset="1" style="stop-color:#333031"/>
	</linearGradient>
	<path class="st1" d="M318.7,117.7H161.5c-2.6,0-4.7,2.1-4.7,4.7c0,2.6,2.1,4.7,4.7,4.7h157.2c2.6,0,4.7-2.1,4.7-4.7
		C323.4,119.8,321.3,117.7,318.7,117.7z M318.7,125.8H161.5c-1.9,0-3.4-1.5-3.4-3.4c0-1.9,1.5-3.4,3.4-3.4h157.2
		c1.9,0,3.4,1.5,3.4,3.4C322.1,124.3,320.6,125.8,318.7,125.8z"/>
	<g>
		<rect x="161.9" y="119.7" class="st2" width="0.4" height="5.3"/>
		<rect x="160" y="120.6" class="st2" width="0.4" height="3.7"/>
		<rect x="163.6" y="119.7" class="st2" width="0.4" height="5.3"/>
		<rect x="165.3" y="119.7" class="st2" width="0.4" height="5.3"/>
		<rect x="167" y="119.7" class="st2" width="0.4" height="5.3"/>
		<rect x="168.7" y="119.7" class="st2" width="0.4" height="5.3"/>
		<rect x="170.4" y="119.7" class="st2" width="0.4" height="5.3"/>
		<rect x="172.2" y="119.7" class="st2" width="0.4" height="5.3"/>
		<rect x="173.9" y="119.7" class="st2" width="0.4" height="5.3"/>
		<rect x="175.6" y="119.7" class="st2" width="0.4" height="5.3"/>
		<rect x="177.3" y="119.7" class="st2" width="0.4" height="5.3"/>
		<rect x="179" y="119.7" class="st2" width="0.4" height="5.3"/>
		<rect x="180.7" y="119.7" class="st2" width="0.4" height="5.3"/>
		<rect x="182.4" y="119.7" class="st2" width="0.4" height="5.3"/>
		<rect x="184.1" y="119.7" class="st2" width="0.4" height="5.3"/>
		<rect x="185.8" y="119.7" class="st2" width="0.4" height="5.3"/>
		<rect x="187.5" y="119.7" class="st2" width="0.4" height="5.3"/>
		<rect x="189.3" y="119.7" class="st2" width="0.4" height="5.3"/>
		<rect x="191" y="119.7" class="st2" width="0.4" height="5.3"/>
		<rect x="192.7" y="119.7" class="st2" width="0.4" height="5.3"/>
		<rect x="194.4" y="119.7" class="st2" width="0.4" height="5.3"/>
		<rect x="196.1" y="119.7" class="st2" width="0.4" height="5.3"/>
		<rect x="197.8" y="119.7" class="st2" width="0.4" height="5.3"/>
		<rect x="199.5" y="119.7" class="st2" width="0.4" height="5.3"/>
		<rect x="201.2" y="119.7" class="st2" width="0.4" height="5.3"/>
		<rect x="202.9" y="119.7" class="st2" width="0.4" height="5.3"/>
		<rect x="204.6" y="119.7" class="st2" width="0.4" height="5.3"/>
		<rect x="206.3" y="119.7" class="st2" width="0.4" height="5.3"/>
		<rect x="208.1" y="119.7" class="st2" width="0.4" height="5.3"/>
		<rect x="209.8" y="119.7" class="st2" width="0.4" height="5.3"/>
		<rect x="211.5" y="119.7" class="st2" width="0.4" height="5.3"/>
		<rect x="213.2" y="119.7" class="st2" width="0.4" height="5.3"/>
		<rect x="214.9" y="119.7" class="st2" width="0.4" height="5.3"/>
		<rect x="216.6" y="119.7" class="st2" width="0.4" height="5.3"/>
		<rect x="218.3" y="119.7" class="st2" width="0.4" height="5.3"/>
		<rect x="220" y="119.7" class="st2" width="0.4" height="5.3"/>
		<rect x="221.7" y="119.7" class="st2" width="0.4" height="5.3"/>
		<rect x="223.4" y="119.7" class="st2" width="0.4" height="5.3"/>
		<rect x="225.1" y="119.7" class="st2" width="0.4" height="5.3"/>
		<rect x="226.9" y="119.7" class="st2" width="0.4" height="5.3"/>
		<rect x="228.6" y="119.7" class="st2" width="0.4" height="5.3"/>
		<rect x="230.3" y="119.7" class="st2" width="0.4" height="5.3"/>
		<rect x="232" y="119.7" class="st2" width="0.4" height="5.3"/>
		<rect x="233.7" y="119.7" class="st2" width="0.4" height="5.3"/>
		<rect x="235.4" y="119.7" class="st2" width="0.4" height="5.3"/>
		<rect x="237.1" y="119.7" class="st2" width="0.4" height="5.3"/>
		<rect x="238.8" y="119.7" class="st2" width="0.4" height="5.3"/>
		<rect x="240.5" y="119.7" class="st2" width="0.4" height="5.3"/>
		<rect x="242.2" y="119.7" class="st2" width="0.4" height="5.3"/>
		<rect x="243.9" y="119.7" class="st2" width="0.4" height="5.3"/>
		<rect x="245.7" y="119.7" class="st2" width="0.4" height="5.3"/>
		<rect x="247.4" y="119.7" class="st2" width="0.4" height="5.3"/>
		<rect x="249.1" y="119.7" class="st2" width="0.4" height="5.3"/>
		<rect x="250.8" y="119.7" class="st2" width="0.4" height="5.3"/>
		<rect x="252.5" y="119.7" class="st2" width="0.4" height="5.3"/>
		<rect x="254.2" y="119.7" class="st2" width="0.4" height="5.3"/>
		<rect x="255.9" y="119.7" class="st2" width="0.4" height="5.3"/>
		<rect x="257.6" y="119.7" class="st2" width="0.4" height="5.3"/>
		<rect x="259.3" y="119.7" class="st2" width="0.4" height="5.3"/>
		<rect x="261" y="119.7" class="st2" width="0.4" height="5.3"/>
		<rect x="262.7" y="119.7" class="st2" width="0.4" height="5.3"/>
		<rect x="264.5" y="119.7" class="st2" width="0.4" height="5.3"/>
		<rect x="266.2" y="119.7" class="st2" width="0.4" height="5.3"/>
		<rect x="267.9" y="119.7" class="st2" width="0.4" height="5.3"/>
		<rect x="269.6" y="119.7" class="st2" width="0.4" height="5.3"/>
		<rect x="271.3" y="119.7" class="st2" width="0.4" height="5.3"/>
		<rect x="273" y="119.7" class="st2" width="0.4" height="5.3"/>
		<rect x="274.7" y="119.7" class="st2" width="0.4" height="5.3"/>
		<rect x="276.4" y="119.7" class="st2" width="0.4" height="5.3"/>
		<rect x="278.1" y="119.7" class="st2" width="0.4" height="5.3"/>
		<rect x="279.8" y="119.7" class="st2" width="0.4" height="5.3"/>
		<rect x="281.6" y="119.7" class="st2" width="0.4" height="5.3"/>
		<rect x="283.3" y="119.7" class="st2" width="0.4" height="5.3"/>
		<rect x="285" y="119.7" class="st2" width="0.4" height="5.3"/>
		<rect x="286.7" y="119.7" class="st2" width="0.4" height="5.3"/>
		<rect x="288.4" y="119.7" class="st2" width="0.4" height="5.3"/>
		<rect x="290.1" y="119.7" class="st2" width="0.4" height="5.3"/>
		<rect x="291.8" y="119.7" class="st2" width="0.4" height="5.3"/>
		<rect x="293.5" y="119.7" class="st2" width="0.4" height="5.3"/>
		<rect x="295.2" y="119.7" class="st2" width="0.4" height="5.3"/>
		<rect x="296.9" y="119.7" class="st2" width="0.4" height="5.3"/>
		<rect x="298.6" y="119.7" class="st2" width="0.4" height="5.3"/>
		<rect x="300.4" y="119.7" class="st2" width="0.4" height="5.3"/>
		<rect x="302.1" y="119.7" class="st2" width="0.4" height="5.3"/>
		<rect x="303.8" y="119.7" class="st2" width="0.4" height="5.3"/>
		<rect x="305.5" y="119.7" class="st2" width="0.4" height="5.3"/>
		<rect x="307.2" y="119.7" class="st2" width="0.4" height="5.3"/>
		<rect x="308.9" y="119.7" class="st2" width="0.4" height="5.3"/>
		<rect x="310.6" y="119.7" class="st2" width="0.4" height="5.3"/>
		<rect x="312.3" y="119.7" class="st2" width="0.4" height="5.3"/>
		<rect x="314" y="119.7" class="st2" width="0.4" height="5.3"/>
		<rect x="319.3" y="120.6" class="st2" width="0.4" height="3.7"/>
		<rect x="314" y="119.7" class="st2" width="0.4" height="5.3"/>
		<rect x="315.7" y="119.7" class="st2" width="0.4" height="5.3"/>
		<rect x="317.4" y="119.7" class="st2" width="0.4" height="5.3"/>
	</g>
</g>
<g>
	<linearGradient id="SVGID_3_" gradientUnits="userSpaceOnUse" x1="237.1092" y1="997.2628" x2="237.1092" y2="987.9586">
		<stop  offset="0" style="stop-color:#545253"/>
		<stop  offset="1" style="stop-color:#333031"/>
	</linearGradient>
	<path class="st3" d="M315.7,988H158.5c-2.6,0-4.7,2.1-4.7,4.7c0,2.6,2.1,4.7,4.7,4.7h157.2c2.6,0,4.7-2.1,4.7-4.7
		C320.4,990,318.3,988,315.7,988z M315.7,996H158.5c-1.9,0-3.4-1.5-3.4-3.4c0-1.9,1.5-3.4,3.4-3.4h157.2c1.9,0,3.4,1.5,3.4,3.4
		C319.1,994.5,317.6,996,315.7,996z"/>
	<g>
		<rect x="158.9" y="989.9" class="st2" width="0.4" height="5.3"/>
		<rect x="157.1" y="990.8" class="st2" width="0.4" height="3.7"/>
		<rect x="160.6" y="989.9" class="st2" width="0.4" height="5.3"/>
		<rect x="162.3" y="989.9" class="st2" width="0.4" height="5.3"/>
		<rect x="164" y="989.9" class="st2" width="0.4" height="5.3"/>
		<rect x="165.7" y="989.9" class="st2" width="0.4" height="5.3"/>
		<rect x="167.5" y="989.9" class="st2" width="0.4" height="5.3"/>
		<rect x="169.2" y="989.9" class="st2" width="0.4" height="5.3"/>
		<rect x="170.9" y="989.9" class="st2" width="0.4" height="5.3"/>
		<rect x="172.6" y="989.9" class="st2" width="0.4" height="5.3"/>
		<rect x="174.3" y="989.9" class="st2" width="0.4" height="5.3"/>
		<rect x="176" y="989.9" class="st2" width="0.4" height="5.3"/>
		<rect x="177.7" y="989.9" class="st2" width="0.4" height="5.3"/>
		<rect x="179.4" y="989.9" class="st2" width="0.4" height="5.3"/>
		<rect x="181.1" y="989.9" class="st2" width="0.4" height="5.3"/>
		<rect x="182.8" y="989.9" class="st2" width="0.4" height="5.3"/>
		<rect x="184.5" y="989.9" class="st2" width="0.4" height="5.3"/>
		<rect x="186.3" y="989.9" class="st2" width="0.4" height="5.3"/>
		<rect x="188" y="989.9" class="st2" width="0.4" height="5.3"/>
		<rect x="189.7" y="989.9" class="st2" width="0.4" height="5.3"/>
		<rect x="191.4" y="989.9" class="st2" width="0.4" height="5.3"/>
		<rect x="193.1" y="989.9" class="st2" width="0.4" height="5.3"/>
		<rect x="194.8" y="989.9" class="st2" width="0.4" height="5.3"/>
		<rect x="196.5" y="989.9" class="st2" width="0.4" height="5.3"/>
		<rect x="198.2" y="989.9" class="st2" width="0.4" height="5.3"/>
		<rect x="199.9" y="989.9" class="st2" width="0.4" height="5.3"/>
		<rect x="201.6" y="989.9" class="st2" width="0.4" height="5.3"/>
		<rect x="203.4" y="989.9" class="st2" width="0.4" height="5.3"/>
		<rect x="205.1" y="989.9" class="st2" width="0.4" height="5.3"/>
		<rect x="206.8" y="989.9" class="st2" width="0.4" height="5.3"/>
		<rect x="208.5" y="989.9" class="st2" width="0.4" height="5.3"/>
		<rect x="210.2" y="989.9" class="st2" width="0.4" height="5.3"/>
		<rect x="211.9" y="989.9" class="st2" width="0.4" height="5.3"/>
		<rect x="213.6" y="989.9" class="st2" width="0.4" height="5.3"/>
		<rect x="215.3" y="989.9" class="st2" width="0.4" height="5.3"/>
		<rect x="217" y="989.9" class="st2" width="0.4" height="5.3"/>
		<rect x="218.7" y="989.9" class="st2" width="0.4" height="5.3"/>
		<rect x="220.4" y="989.9" class="st2" width="0.4" height="5.3"/>
		<rect x="222.2" y="989.9" class="st2" width="0.4" height="5.3"/>
		<rect x="223.9" y="989.9" class="st2" width="0.4" height="5.3"/>
		<rect x="225.6" y="989.9" class="st2" width="0.4" height="5.3"/>
		<rect x="227.3" y="989.9" class="st2" width="0.4" height="5.3"/>
		<rect x="229" y="989.9" class="st2" width="0.4" height="5.3"/>
		<rect x="230.7" y="989.9" class="st2" width="0.4" height="5.3"/>
		<rect x="232.4" y="989.9" class="st2" width="0.4" height="5.3"/>
		<rect x="234.1" y="989.9" class="st2" width="0.4" height="5.3"/>
		<rect x="235.8" y="989.9" class="st2" width="0.4" height="5.3"/>
		<rect x="237.5" y="989.9" class="st2" width="0.4" height="5.3"/>
		<rect x="239.2" y="989.9" class="st2" width="0.4" height="5.3"/>
		<rect x="241" y="989.9" class="st2" width="0.4" height="5.3"/>
		<rect x="242.7" y="989.9" class="st2" width="0.4" height="5.3"/>
		<rect x="244.4" y="989.9" class="st2" width="0.4" height="5.3"/>
		<rect x="246.1" y="989.9" class="st2" width="0.4" height="5.3"/>
		<rect x="247.8" y="989.9" class="st2" width="0.4" height="5.3"/>
		<rect x="249.5" y="989.9" class="st2" width="0.4" height="5.3"/>
		<rect x="251.2" y="989.9" class="st2" width="0.4" height="5.3"/>
		<rect x="252.9" y="989.9" class="st2" width="0.4" height="5.3"/>
		<rect x="254.6" y="989.9" class="st2" width="0.4" height="5.3"/>
		<rect x="256.3" y="989.9" class="st2" width="0.4" height="5.3"/>
		<rect x="258" y="989.9" class="st2" width="0.4" height="5.3"/>
		<rect x="259.8" y="989.9" class="st2" width="0.4" height="5.3"/>
		<rect x="261.5" y="989.9" class="st2" width="0.4" height="5.3"/>
		<rect x="263.2" y="989.9" class="st2" width="0.4" height="5.3"/>
		<rect x="264.9" y="989.9" class="st2" width="0.4" height="5.3"/>
		<rect x="266.6" y="989.9" class="st2" width="0.4" height="5.3"/>
		<rect x="268.3" y="989.9" class="st2" width="0.4" height="5.3"/>
		<rect x="270" y="989.9" class="st2" width="0.4" height="5.3"/>
		<rect x="271.7" y="989.9" class="st2" width="0.4" height="5.3"/>
		<rect x="273.4" y="989.9" class="st2" width="0.4" height="5.3"/>
		<rect x="275.1" y="989.9" class="st2" width="0.4" height="5.3"/>
		<rect x="276.9" y="989.9" class="st2" width="0.4" height="5.3"/>
		<rect x="278.6" y="989.9" class="st2" width="0.4" height="5.3"/>
		<rect x="280.3" y="989.9" class="st2" width="0.4" height="5.3"/>
		<rect x="282" y="989.9" class="st2" width="0.4" height="5.3"/>
		<rect x="283.7" y="989.9" class="st2" width="0.4" height="5.3"/>
		<rect x="285.4" y="989.9" class="st2" width="0.4" height="5.3"/>
		<rect x="287.1" y="989.9" class="st2" width="0.4" height="5.3"/>
		<rect x="288.8" y="989.9" class="st2" width="0.4" height="5.3"/>
		<rect x="290.5" y="989.9" class="st2" width="0.4" height="5.3"/>
		<rect x="292.2" y="989.9" class="st2" width="0.4" height="5.3"/>
		<rect x="293.9" y="989.9" class="st2" width="0.4" height="5.3"/>
		<rect x="295.7" y="989.9" class="st2" width="0.4" height="5.3"/>
		<rect x="297.4" y="989.9" class="st2" width="0.4" height="5.3"/>
		<rect x="299.1" y="989.9" class="st2" width="0.4" height="5.3"/>
		<rect x="300.8" y="989.9" class="st2" width="0.4" height="5.3"/>
		<rect x="302.5" y="989.9" class="st2" width="0.4" height="5.3"/>
		<rect x="304.2" y="989.9" class="st2" width="0.4" height="5.3"/>
		<rect x="305.9" y="989.9" class="st2" width="0.4" height="5.3"/>
		<rect x="307.6" y="989.9" class="st2" width="0.4" height="5.3"/>
		<rect x="309.3" y="989.9" class="st2" width="0.4" height="5.3"/>
		<rect x="311" y="989.9" class="st2" width="0.4" height="5.3"/>
		<rect x="316.3" y="990.8" class="st2" width="0.4" height="3.7"/>
		<rect x="311" y="989.9" class="st2" width="0.4" height="5.3"/>
		<rect x="312.7" y="989.9" class="st2" width="0.4" height="5.3"/>
		<rect x="314.5" y="989.9" class="st2" width="0.4" height="5.3"/>
	</g>
</g>
<g>
	<linearGradient id="SVGID_4_" gradientUnits="userSpaceOnUse" x1="463.3386" y1="379.162" x2="463.3386" y2="316.88">
		<stop  offset="0" style="stop-color:#8E8C8F"/>
		<stop  offset="3.763440e-02" style="stop-color:#241F23"/>
		<stop  offset="7.526880e-02" style="stop-color:#C8C5C8"/>
		<stop  offset="0.9194" style="stop-color:#C8C5C8"/>
		<stop  offset="0.9624" style="stop-color:#241F23"/>
		<stop  offset="1" style="stop-color:#8E8C8F"/>
	</linearGradient>
	<path class="st4" d="M465.4,375.1c0,2.3-1.8,4.1-4.1,4.1l0,0c0-7.5,0-55.8,0-62.3l0,0c2.3,0,4.1,1.8,4.1,4.1V375.1z"/>
	<g>
		<defs>
			<filter id="Adobe_OpacityMaskFilter" filterUnits="userSpaceOnUse" x="461.3" y="320.1" width="2" height="55.3">
				<feFlood  style="flood-color:white;flood-opacity:1" result="back"/>
				<feBlend  in="SourceGraphic" in2="back" mode="normal"/>
			</filter>
		</defs>
		<mask maskUnits="userSpaceOnUse" x="461.3" y="320.1" width="2" height="55.3" id="SVGID_5_">
			<g class="st5">
				<defs>
					<filter id="Adobe_OpacityMaskFilter_1_" filterUnits="userSpaceOnUse" x="461.3" y="320.1" width="2" height="55.3">
						<feFlood  style="flood-color:white;flood-opacity:1" result="back"/>
						<feBlend  in="SourceGraphic" in2="back" mode="normal"/>
					</filter>
				</defs>
				<mask maskUnits="userSpaceOnUse" x="461.3" y="320.1" width="2" height="55.3" id="SVGID_5_">
					<g class="st6">
					</g>
				</mask>
				<linearGradient id="SVGID_6_" gradientUnits="userSpaceOnUse" x1="462.3169" y1="375.4055" x2="462.3169" y2="320.1146">
					<stop  offset="0" style="stop-color:#000000"/>
					<stop  offset="5.376340e-02" style="stop-color:#FFFFFF"/>
					<stop  offset="0.9462" style="stop-color:#FFFFFF"/>
					<stop  offset="1" style="stop-color:#000000"/>
				</linearGradient>
				<rect x="461.3" y="320.1" class="st7" width="2" height="55.3"/>
			</g>
		</mask>
		<linearGradient id="SVGID_7_" gradientUnits="userSpaceOnUse" x1="462.3169" y1="375.4055" x2="462.3169" y2="320.1146">
			<stop  offset="0" style="stop-color:#8E8E90"/>
			<stop  offset="5.376340e-02" style="stop-color:#8E8E90"/>
			<stop  offset="0.9462" style="stop-color:#8E8E90"/>
			<stop  offset="1" style="stop-color:#8E8E90"/>
		</linearGradient>
		<rect x="461.3" y="320.1" class="st8" width="2" height="55.3"/>
	</g>
</g>
<g>
	<linearGradient id="SVGID_8_" gradientUnits="userSpaceOnUse" x1="463.3386" y1="562.8005" x2="463.3386" y2="445.6847">
		<stop  offset="0" style="stop-color:#8E8C8F"/>
		<stop  offset="1.612900e-02" style="stop-color:#241F23"/>
		<stop  offset="4.838710e-02" style="stop-color:#C8C5C8"/>
		<stop  offset="0.9409" style="stop-color:#C8C5C8"/>
		<stop  offset="0.9731" style="stop-color:#241F23"/>
		<stop  offset="1" style="stop-color:#8E8C8F"/>
	</linearGradient>
	<path class="st9" d="M465.4,558.7c0,2.3-1.8,4.1-4.1,4.1l0,0c0-7.5,0-110.6,0-117.1l0,0c2.3,0,4.1,1.8,4.1,4.1V558.7z"/>
	<g>
		<defs>
			<filter id="Adobe_OpacityMaskFilter_2_" filterUnits="userSpaceOnUse" x="461.3" y="448.9" width="2" height="110.1">
				<feFlood  style="flood-color:white;flood-opacity:1" result="back"/>
				<feBlend  in="SourceGraphic" in2="back" mode="normal"/>
			</filter>
		</defs>
		<mask maskUnits="userSpaceOnUse" x="461.3" y="448.9" width="2" height="110.1" id="SVGID_9_">
			<g class="st10">
				<defs>
					<filter id="Adobe_OpacityMaskFilter_3_" filterUnits="userSpaceOnUse" x="461.3" y="448.9" width="2" height="110.1">
						<feFlood  style="flood-color:white;flood-opacity:1" result="back"/>
						<feBlend  in="SourceGraphic" in2="back" mode="normal"/>
					</filter>
				</defs>
				<mask maskUnits="userSpaceOnUse" x="461.3" y="448.9" width="2" height="110.1" id="SVGID_9_">
					<g class="st11">
					</g>
				</mask>
				<linearGradient id="SVGID_10_" gradientUnits="userSpaceOnUse" x1="462.3169" y1="559.0439" x2="462.3169" y2="448.9192">
					<stop  offset="0" style="stop-color:#000000"/>
					<stop  offset="5.376340e-02" style="stop-color:#FFFFFF"/>
					<stop  offset="0.9462" style="stop-color:#FFFFFF"/>
					<stop  offset="1" style="stop-color:#000000"/>
				</linearGradient>
				<rect x="461.3" y="448.9" class="st12" width="2" height="110.1"/>
			</g>
		</mask>
		<linearGradient id="SVGID_11_" gradientUnits="userSpaceOnUse" x1="462.3169" y1="559.0439" x2="462.3169" y2="448.9192">
			<stop  offset="0" style="stop-color:#8E8E90"/>
			<stop  offset="5.376340e-02" style="stop-color:#8E8E90"/>
			<stop  offset="0.9462" style="stop-color:#8E8E90"/>
			<stop  offset="1" style="stop-color:#8E8E90"/>
		</linearGradient>
		<rect x="461.3" y="448.9" class="st13" width="2" height="110.1"/>
	</g>
</g>
<g>
	<circle class="st14" cx="82.9" cy="137.7" r="8.5"/>
	<ellipse class="st15" cx="82.9" cy="137.7" rx="5.2" ry="5.2"/>
	<circle class="st16" cx="82.9" cy="137.7" r="4.3"/>
	<circle class="st17" cx="83.8" cy="136.6" r="0.9"/>
	<path class="st18" d="M81.7,141.9c1-0.4,1.7-1.4,1.7-2.5c0-1.5-1.2-2.7-2.7-2.7c-0.9,0-1.6,0.4-2.1,1.1
		C78.6,139.7,79.9,141.3,81.7,141.9z"/>
	<path class="st19" d="M80.8,141.4c1-0.1,1.8-0.9,1.8-1.9c0-1.1-0.9-1.9-1.9-1.9c-0.9,0-1.6,0.6-1.8,1.5
		C79.2,140.1,79.9,140.9,80.8,141.4z"/>
	<path class="st20" d="M80.3,138.2c-0.6,0-1.2,0.4-1.4,0.9c0.3,0.9,0.9,1.6,1.6,2.1c0.8-0.1,1.3-0.7,1.3-1.5
		C81.8,138.9,81.1,138.2,80.3,138.2z"/>
</g>
<path class="st21" d="M72,111.9h334.6c13.3,0,25,3.8,32.4,9.5c-7.1-6.7-19.7-11.2-34-11.2H73.6c-14.4,0-26.9,4.5-34,11.2
	C47,115.6,58.7,111.9,72,111.9z"/>
<linearGradient id="SVGID_12_" gradientUnits="userSpaceOnUse" x1="16.3803" y1="556.4755" x2="461.2943" y2="556.4755">
	<stop  offset="0" style="stop-color:#8E8C8F"/>
	<stop  offset="1.612900e-02" style="stop-color:#241F23"/>
	<stop  offset="4.838710e-02" style="stop-color:#C8C5C8"/>
	<stop  offset="0.9409" style="stop-color:#C8C5C8"/>
	<stop  offset="0.9731" style="stop-color:#241F23"/>
	<stop  offset="1" style="stop-color:#8E8C8F"/>
</linearGradient>
<path class="st22" d="M414.6,96.9H63c-25.7,0-46.6,20.9-46.6,46.6v825.8c0,25.7,20.9,46.6,46.6,46.6h351.6
	c25.7,0,46.6-20.9,46.6-46.6V143.6C461.3,117.8,440.4,96.9,414.6,96.9z M457.1,969.4c0,23.4-19,42.4-42.4,42.4H63
	c-23.4,0-42.4-19-42.4-42.4V143.6c0-23.4,19-42.4,42.4-42.4h351.6c23.4,0,42.4,19,42.4,42.4V969.4z"/>
<path class="st23" d="M63,1012.9c-24,0-43.5-19.5-43.5-43.5V143.6c0-24,19.5-43.5,43.5-43.5h351.6c24,0,43.5,19.5,43.5,43.5v825.8
	c0,24-19.5,43.5-43.5,43.5H63z"/>
<g>
	<defs>
		<path id="SVGID_13_" d="M440.7,939.3c0,12.9-10.4,23.3-23.3,23.3H60.3c-12.9,0-23.3-10.4-23.3-23.3V180.7
			c0-12.9,10.4-23.3,23.3-23.3h357.1c12.9,0,23.3,10.4,23.3,23.3V939.3z"/>
	</defs>
	<clipPath id="SVGID_14_">
		<use xlink:href="#SVGID_13_"  style="overflow:visible;"/>
	</clipPath>
	<g id="OEexCq.tif" class="st24">
		
			<image style="overflow:visible;" width="1024" height="992" id="Layer_0_1_" xlink:href="8163875791D690DE.png"  transform="matrix(0.9617 0 0 0.9617 0 79.4842)">
		</image>
	</g>
</g>
<rect x="30.5" y="9.2" class="st25" width="420.3" height="67.8"/>
<text transform="matrix(1 0 0 1 72.7493 75.7247)" class="st26 st27">Android</text>
</svg>
